<mxfile host="app.diagrams.net" modified="2022-12-19T15:33:06.451Z" agent="5.0 (Windows NT 10.0; Win64; x64) AppleWebKit/537.36 (KHTML, like Gecko) Chrome/108.0.0.0 Safari/537.36" etag="Efqf2MbAHm1kHwRkJYtt" version="20.6.2" type="github">
  <diagram id="g1NdRkAmtEgu-kHOYIsb" name="Page-1">
    <mxGraphModel dx="1422" dy="1890" grid="1" gridSize="10" guides="1" tooltips="1" connect="1" arrows="1" fold="1" page="1" pageScale="1" pageWidth="850" pageHeight="1100" math="0" shadow="0">
      <root>
        <mxCell id="0" />
        <mxCell id="1" parent="0" />
        <mxCell id="ku4rD2mjFedqAOvzUmAO-1" value="Applicant Details" style="swimlane;fontStyle=0;childLayout=stackLayout;horizontal=1;startSize=26;fillColor=none;horizontalStack=0;resizeParent=1;resizeParentMax=0;resizeLast=0;collapsible=1;marginBottom=0;strokeWidth=1;" parent="1" vertex="1">
          <mxGeometry x="130" y="900" width="140" height="208" as="geometry" />
        </mxCell>
        <mxCell id="ku4rD2mjFedqAOvzUmAO-2" value="Applicant Id" style="text;strokeColor=none;fillColor=none;align=left;verticalAlign=top;spacingLeft=4;spacingRight=4;overflow=hidden;rotatable=0;points=[[0,0.5],[1,0.5]];portConstraint=eastwest;strokeWidth=1;" parent="ku4rD2mjFedqAOvzUmAO-1" vertex="1">
          <mxGeometry y="26" width="140" height="26" as="geometry" />
        </mxCell>
        <mxCell id="ku4rD2mjFedqAOvzUmAO-3" value="Name Of Applicant" style="text;strokeColor=none;fillColor=none;align=left;verticalAlign=top;spacingLeft=4;spacingRight=4;overflow=hidden;rotatable=0;points=[[0,0.5],[1,0.5]];portConstraint=eastwest;strokeWidth=1;" parent="ku4rD2mjFedqAOvzUmAO-1" vertex="1">
          <mxGeometry y="52" width="140" height="26" as="geometry" />
        </mxCell>
        <mxCell id="ku4rD2mjFedqAOvzUmAO-16" value="Applicant Identity" style="text;strokeColor=none;fillColor=none;align=left;verticalAlign=top;spacingLeft=4;spacingRight=4;overflow=hidden;rotatable=0;points=[[0,0.5],[1,0.5]];portConstraint=eastwest;strokeWidth=1;" parent="ku4rD2mjFedqAOvzUmAO-1" vertex="1">
          <mxGeometry y="78" width="140" height="26" as="geometry" />
        </mxCell>
        <mxCell id="ku4rD2mjFedqAOvzUmAO-5" value="Applicant Phone" style="text;strokeColor=none;fillColor=none;align=left;verticalAlign=top;spacingLeft=4;spacingRight=4;overflow=hidden;rotatable=0;points=[[0,0.5],[1,0.5]];portConstraint=eastwest;strokeWidth=1;" parent="ku4rD2mjFedqAOvzUmAO-1" vertex="1">
          <mxGeometry y="104" width="140" height="26" as="geometry" />
        </mxCell>
        <mxCell id="ku4rD2mjFedqAOvzUmAO-7" value="Applicant Email" style="text;strokeColor=none;fillColor=none;align=left;verticalAlign=top;spacingLeft=4;spacingRight=4;overflow=hidden;rotatable=0;points=[[0,0.5],[1,0.5]];portConstraint=eastwest;strokeWidth=1;" parent="ku4rD2mjFedqAOvzUmAO-1" vertex="1">
          <mxGeometry y="130" width="140" height="26" as="geometry" />
        </mxCell>
        <mxCell id="ku4rD2mjFedqAOvzUmAO-10" value="Applicant Address" style="text;strokeColor=none;fillColor=none;align=left;verticalAlign=top;spacingLeft=4;spacingRight=4;overflow=hidden;rotatable=0;points=[[0,0.5],[1,0.5]];portConstraint=eastwest;strokeWidth=1;" parent="ku4rD2mjFedqAOvzUmAO-1" vertex="1">
          <mxGeometry y="156" width="140" height="26" as="geometry" />
        </mxCell>
        <mxCell id="ku4rD2mjFedqAOvzUmAO-9" value="Applicant Designation" style="text;strokeColor=none;fillColor=none;align=left;verticalAlign=top;spacingLeft=4;spacingRight=4;overflow=hidden;rotatable=0;points=[[0,0.5],[1,0.5]];portConstraint=eastwest;strokeWidth=1;" parent="ku4rD2mjFedqAOvzUmAO-1" vertex="1">
          <mxGeometry y="182" width="140" height="26" as="geometry" />
        </mxCell>
        <mxCell id="ku4rD2mjFedqAOvzUmAO-11" value="Application Form" style="swimlane;fontStyle=0;childLayout=stackLayout;horizontal=1;startSize=26;fillColor=none;horizontalStack=0;resizeParent=1;resizeParentMax=0;resizeLast=0;collapsible=1;marginBottom=0;strokeWidth=1;" parent="1" vertex="1">
          <mxGeometry x="370" y="900" width="140" height="50" as="geometry" />
        </mxCell>
        <mxCell id="ku4rD2mjFedqAOvzUmAO-12" value="Company CategoryÂ " style="text;strokeColor=none;fillColor=none;align=left;verticalAlign=top;spacingLeft=4;spacingRight=4;overflow=hidden;rotatable=0;points=[[0,0.5],[1,0.5]];portConstraint=eastwest;strokeWidth=1;" parent="ku4rD2mjFedqAOvzUmAO-11" vertex="1">
          <mxGeometry y="26" width="140" height="24" as="geometry" />
        </mxCell>
        <mxCell id="ku4rD2mjFedqAOvzUmAO-24" value="Scholarship / Grants Application Management Data Model&amp;nbsp;" style="rounded=0;whiteSpace=wrap;html=1;strokeWidth=1;" parent="1" vertex="1">
          <mxGeometry x="250" y="810" width="510" height="30" as="geometry" />
        </mxCell>
        <mxCell id="ku4rD2mjFedqAOvzUmAO-25" value="Approval Processes" style="rounded=0;whiteSpace=wrap;html=1;strokeWidth=1;" parent="1" vertex="1">
          <mxGeometry x="30" y="1500" width="200" height="30" as="geometry" />
        </mxCell>
        <mxCell id="ku4rD2mjFedqAOvzUmAO-26" value="Email Notifications&amp;nbsp;" style="rounded=0;whiteSpace=wrap;html=1;strokeWidth=1;" parent="1" vertex="1">
          <mxGeometry x="30" y="1540" width="200" height="30" as="geometry" />
        </mxCell>
        <mxCell id="ku4rD2mjFedqAOvzUmAO-27" value="Check Application Status LWC" style="rounded=0;whiteSpace=wrap;html=1;strokeWidth=1;" parent="1" vertex="1">
          <mxGeometry x="30" y="1580" width="200" height="30" as="geometry" />
        </mxCell>
        <mxCell id="FgcfpgPcmg5inHo28Lzp-1" value="Stages Of Grant Management" style="rounded=0;whiteSpace=wrap;html=1;strokeWidth=1;" parent="1" vertex="1">
          <mxGeometry x="210" y="-1070" width="410" height="30" as="geometry" />
        </mxCell>
        <mxCell id="WLysvCGqEz9dYXmvK1la-10" style="edgeStyle=orthogonalEdgeStyle;rounded=0;orthogonalLoop=1;jettySize=auto;html=1;exitX=0.5;exitY=1;exitDx=0;exitDy=0;entryX=0.5;entryY=0;entryDx=0;entryDy=0;strokeWidth=1;fontSize=8;" parent="1" source="FgcfpgPcmg5inHo28Lzp-3" target="FgcfpgPcmg5inHo28Lzp-31" edge="1">
          <mxGeometry relative="1" as="geometry" />
        </mxCell>
        <mxCell id="FgcfpgPcmg5inHo28Lzp-3" value="Application&amp;nbsp;" style="rounded=0;whiteSpace=wrap;html=1;strokeWidth=1;" parent="1" vertex="1">
          <mxGeometry x="347.5" y="-1020" width="120" height="60" as="geometry" />
        </mxCell>
        <mxCell id="FgcfpgPcmg5inHo28Lzp-9" value="&lt;ul style=&quot;font-size: 8px;&quot;&gt;&lt;li style=&quot;&quot;&gt;Search for available grants&amp;nbsp;&lt;/li&gt;&lt;li style=&quot;&quot;&gt;Check Eligibility&amp;nbsp;&lt;/li&gt;&lt;li style=&quot;&quot;&gt;Establish deadlines&amp;nbsp;&lt;/li&gt;&lt;li style=&quot;&quot;&gt;Collect information of the applicant&amp;nbsp;&lt;/li&gt;&lt;li style=&quot;&quot;&gt;Submit application&amp;nbsp;&lt;/li&gt;&lt;li style=&quot;&quot;&gt;Submit SOP, ROL etc.&lt;/li&gt;&lt;/ul&gt;" style="rounded=0;whiteSpace=wrap;html=1;align=left;strokeWidth=1;" parent="1" vertex="1">
          <mxGeometry x="482.74" y="-1020" width="237.26" height="50" as="geometry" />
        </mxCell>
        <mxCell id="FgcfpgPcmg5inHo28Lzp-26" style="edgeStyle=orthogonalEdgeStyle;rounded=0;orthogonalLoop=1;jettySize=auto;html=1;exitX=0.5;exitY=1;exitDx=0;exitDy=0;strokeWidth=1;" parent="1" source="FgcfpgPcmg5inHo28Lzp-21" edge="1">
          <mxGeometry relative="1" as="geometry">
            <mxPoint x="405.12" y="-790" as="targetPoint" />
          </mxGeometry>
        </mxCell>
        <mxCell id="FgcfpgPcmg5inHo28Lzp-28" style="edgeStyle=orthogonalEdgeStyle;rounded=0;orthogonalLoop=1;jettySize=auto;html=1;exitX=1;exitY=0.5;exitDx=0;exitDy=0;strokeWidth=1;" parent="1" source="FgcfpgPcmg5inHo28Lzp-21" edge="1">
          <mxGeometry relative="1" as="geometry">
            <mxPoint x="495.12" y="-830" as="targetPoint" />
          </mxGeometry>
        </mxCell>
        <mxCell id="FgcfpgPcmg5inHo28Lzp-34" style="edgeStyle=orthogonalEdgeStyle;rounded=0;orthogonalLoop=1;jettySize=auto;html=1;exitX=0.5;exitY=1;exitDx=0;exitDy=0;entryX=0.5;entryY=0;entryDx=0;entryDy=0;strokeWidth=1;" parent="1" source="FgcfpgPcmg5inHo28Lzp-21" target="FgcfpgPcmg5inHo28Lzp-30" edge="1">
          <mxGeometry relative="1" as="geometry" />
        </mxCell>
        <mxCell id="FgcfpgPcmg5inHo28Lzp-21" value="Eligible&amp;nbsp;" style="rhombus;whiteSpace=wrap;html=1;rounded=0;strokeWidth=1;" parent="1" vertex="1">
          <mxGeometry x="365.12" y="-870" width="80" height="80" as="geometry" />
        </mxCell>
        <mxCell id="FgcfpgPcmg5inHo28Lzp-27" value="Reject Application" style="rounded=0;whiteSpace=wrap;html=1;strokeWidth=1;" parent="1" vertex="1">
          <mxGeometry x="495.12" y="-840" width="110" height="20" as="geometry" />
        </mxCell>
        <mxCell id="FgcfpgPcmg5inHo28Lzp-29" value="NO" style="text;html=1;strokeColor=none;fillColor=none;align=center;verticalAlign=middle;whiteSpace=wrap;rounded=0;strokeWidth=1;" parent="1" vertex="1">
          <mxGeometry x="435.12" y="-860" width="60" height="30" as="geometry" />
        </mxCell>
        <mxCell id="WLysvCGqEz9dYXmvK1la-4" style="edgeStyle=orthogonalEdgeStyle;rounded=0;orthogonalLoop=1;jettySize=auto;html=1;exitX=0.5;exitY=1;exitDx=0;exitDy=0;entryX=0.5;entryY=0;entryDx=0;entryDy=0;strokeWidth=1;fontSize=8;" parent="1" source="FgcfpgPcmg5inHo28Lzp-30" target="WLysvCGqEz9dYXmvK1la-2" edge="1">
          <mxGeometry relative="1" as="geometry" />
        </mxCell>
        <mxCell id="FgcfpgPcmg5inHo28Lzp-30" value="Program managers to shortlist applications" style="rounded=0;whiteSpace=wrap;html=1;strokeWidth=1;" parent="1" vertex="1">
          <mxGeometry x="317.62" y="-760" width="180" height="60" as="geometry" />
        </mxCell>
        <mxCell id="FgcfpgPcmg5inHo28Lzp-32" style="edgeStyle=orthogonalEdgeStyle;rounded=0;orthogonalLoop=1;jettySize=auto;html=1;exitX=0.5;exitY=1;exitDx=0;exitDy=0;entryX=0.5;entryY=0;entryDx=0;entryDy=0;strokeWidth=1;" parent="1" source="FgcfpgPcmg5inHo28Lzp-31" target="FgcfpgPcmg5inHo28Lzp-21" edge="1">
          <mxGeometry relative="1" as="geometry" />
        </mxCell>
        <mxCell id="FgcfpgPcmg5inHo28Lzp-31" value="Grant Program Officer checks Eligibility" style="rounded=0;whiteSpace=wrap;html=1;strokeWidth=1;" parent="1" vertex="1">
          <mxGeometry x="355.12" y="-940" width="100" height="50" as="geometry" />
        </mxCell>
        <mxCell id="FgcfpgPcmg5inHo28Lzp-35" value="YES" style="text;html=1;strokeColor=none;fillColor=none;align=center;verticalAlign=middle;whiteSpace=wrap;rounded=0;strokeWidth=1;" parent="1" vertex="1">
          <mxGeometry x="395.12" y="-790" width="60" height="30" as="geometry" />
        </mxCell>
        <mxCell id="WLysvCGqEz9dYXmvK1la-5" style="edgeStyle=orthogonalEdgeStyle;rounded=0;orthogonalLoop=1;jettySize=auto;html=1;exitX=0.5;exitY=1;exitDx=0;exitDy=0;entryX=0.5;entryY=0;entryDx=0;entryDy=0;strokeWidth=1;fontSize=8;" parent="1" source="WLysvCGqEz9dYXmvK1la-2" target="WLysvCGqEz9dYXmvK1la-3" edge="1">
          <mxGeometry relative="1" as="geometry" />
        </mxCell>
        <mxCell id="WLysvCGqEz9dYXmvK1la-2" value="Setup interviews with shortlisted candidates" style="rounded=0;whiteSpace=wrap;html=1;strokeWidth=1;" parent="1" vertex="1">
          <mxGeometry x="317.62" y="-670" width="180" height="60" as="geometry" />
        </mxCell>
        <mxCell id="WLysvCGqEz9dYXmvK1la-7" style="edgeStyle=orthogonalEdgeStyle;rounded=0;orthogonalLoop=1;jettySize=auto;html=1;exitX=0.5;exitY=1;exitDx=0;exitDy=0;entryX=0.5;entryY=0;entryDx=0;entryDy=0;strokeWidth=1;fontSize=8;" parent="1" source="WLysvCGqEz9dYXmvK1la-3" target="WLysvCGqEz9dYXmvK1la-6" edge="1">
          <mxGeometry relative="1" as="geometry" />
        </mxCell>
        <mxCell id="WLysvCGqEz9dYXmvK1la-3" value="Program managers to shortlist applications after interview" style="rounded=0;whiteSpace=wrap;html=1;strokeWidth=1;" parent="1" vertex="1">
          <mxGeometry x="317.62" y="-580" width="180" height="60" as="geometry" />
        </mxCell>
        <mxCell id="WLysvCGqEz9dYXmvK1la-6" value="Finance officer to declare total funds available for the program" style="rounded=0;whiteSpace=wrap;html=1;" parent="1" vertex="1">
          <mxGeometry x="317.62" y="-490" width="180" height="60" as="geometry" />
        </mxCell>
        <mxCell id="WLysvCGqEz9dYXmvK1la-12" value="Legal team to create payment agreements, special conditions and all the other req. docs." style="rounded=0;whiteSpace=wrap;html=1;" parent="1" vertex="1">
          <mxGeometry x="317.62" y="-400" width="180" height="60" as="geometry" />
        </mxCell>
        <mxCell id="WLysvCGqEz9dYXmvK1la-13" value="Finalize candidate list based on funds available&amp;nbsp;&amp;nbsp;" style="rounded=0;whiteSpace=wrap;html=1;" parent="1" vertex="1">
          <mxGeometry x="317.62" y="-310" width="180" height="60" as="geometry" />
        </mxCell>
        <mxCell id="WLysvCGqEz9dYXmvK1la-14" value="Notify candidate weather or not his application is accepted&amp;nbsp;" style="rounded=0;whiteSpace=wrap;html=1;" parent="1" vertex="1">
          <mxGeometry x="317.62" y="-220" width="180" height="60" as="geometry" />
        </mxCell>
        <mxCell id="WLysvCGqEz9dYXmvK1la-20" style="edgeStyle=orthogonalEdgeStyle;rounded=0;orthogonalLoop=1;jettySize=auto;html=1;exitX=0;exitY=0.5;exitDx=0;exitDy=0;entryX=0.5;entryY=0;entryDx=0;entryDy=0;strokeWidth=1;fontSize=8;" parent="1" source="WLysvCGqEz9dYXmvK1la-15" target="WLysvCGqEz9dYXmvK1la-19" edge="1">
          <mxGeometry relative="1" as="geometry" />
        </mxCell>
        <mxCell id="WLysvCGqEz9dYXmvK1la-21" style="edgeStyle=orthogonalEdgeStyle;rounded=0;orthogonalLoop=1;jettySize=auto;html=1;exitX=1;exitY=0.5;exitDx=0;exitDy=0;entryX=0.5;entryY=0;entryDx=0;entryDy=0;strokeWidth=1;fontSize=8;" parent="1" source="WLysvCGqEz9dYXmvK1la-15" target="WLysvCGqEz9dYXmvK1la-18" edge="1">
          <mxGeometry relative="1" as="geometry" />
        </mxCell>
        <mxCell id="WLysvCGqEz9dYXmvK1la-15" value="Give deadline to the applicant to accept or reject the offer" style="rounded=0;whiteSpace=wrap;html=1;" parent="1" vertex="1">
          <mxGeometry x="317.5" y="-140" width="180" height="60" as="geometry" />
        </mxCell>
        <mxCell id="WLysvCGqEz9dYXmvK1la-33" style="edgeStyle=orthogonalEdgeStyle;rounded=0;orthogonalLoop=1;jettySize=auto;html=1;exitX=1;exitY=0.5;exitDx=0;exitDy=0;entryX=1;entryY=0.5;entryDx=0;entryDy=0;strokeWidth=1;fontSize=8;" parent="1" source="WLysvCGqEz9dYXmvK1la-18" target="WLysvCGqEz9dYXmvK1la-13" edge="1">
          <mxGeometry relative="1" as="geometry" />
        </mxCell>
        <mxCell id="WLysvCGqEz9dYXmvK1la-18" value="Give offer to other shortlisted applicants&amp;nbsp;" style="rounded=0;whiteSpace=wrap;html=1;" parent="1" vertex="1">
          <mxGeometry x="511.37" y="-40" width="180" height="60" as="geometry" />
        </mxCell>
        <mxCell id="WLysvCGqEz9dYXmvK1la-27" style="edgeStyle=orthogonalEdgeStyle;rounded=0;orthogonalLoop=1;jettySize=auto;html=1;exitX=0.5;exitY=1;exitDx=0;exitDy=0;entryX=0.5;entryY=0;entryDx=0;entryDy=0;strokeWidth=1;fontSize=8;" parent="1" source="WLysvCGqEz9dYXmvK1la-19" target="WLysvCGqEz9dYXmvK1la-24" edge="1">
          <mxGeometry relative="1" as="geometry" />
        </mxCell>
        <mxCell id="WLysvCGqEz9dYXmvK1la-19" value="Program officer pre approves payments&amp;nbsp;" style="rounded=0;whiteSpace=wrap;html=1;" parent="1" vertex="1">
          <mxGeometry x="137.62" y="-40" width="180" height="60" as="geometry" />
        </mxCell>
        <mxCell id="WLysvCGqEz9dYXmvK1la-22" value="Accepted" style="text;html=1;strokeColor=none;fillColor=none;align=center;verticalAlign=middle;whiteSpace=wrap;rounded=0;strokeWidth=1;fontSize=8;" parent="1" vertex="1">
          <mxGeometry x="257.62" y="-110" width="60" height="30" as="geometry" />
        </mxCell>
        <mxCell id="WLysvCGqEz9dYXmvK1la-23" value="Rejected" style="text;html=1;strokeColor=none;fillColor=none;align=center;verticalAlign=middle;whiteSpace=wrap;rounded=0;strokeWidth=1;fontSize=8;" parent="1" vertex="1">
          <mxGeometry x="500" y="-105" width="60" height="20" as="geometry" />
        </mxCell>
        <mxCell id="WLysvCGqEz9dYXmvK1la-28" style="edgeStyle=orthogonalEdgeStyle;rounded=0;orthogonalLoop=1;jettySize=auto;html=1;exitX=0.5;exitY=1;exitDx=0;exitDy=0;strokeWidth=1;fontSize=8;" parent="1" source="WLysvCGqEz9dYXmvK1la-24" target="WLysvCGqEz9dYXmvK1la-25" edge="1">
          <mxGeometry relative="1" as="geometry" />
        </mxCell>
        <mxCell id="WLysvCGqEz9dYXmvK1la-24" value="Finance manager approves payments&amp;nbsp;" style="rounded=0;whiteSpace=wrap;html=1;" parent="1" vertex="1">
          <mxGeometry x="137.5" y="40" width="180" height="60" as="geometry" />
        </mxCell>
        <mxCell id="WLysvCGqEz9dYXmvK1la-29" style="edgeStyle=orthogonalEdgeStyle;rounded=0;orthogonalLoop=1;jettySize=auto;html=1;exitX=0.5;exitY=1;exitDx=0;exitDy=0;entryX=0.5;entryY=0;entryDx=0;entryDy=0;strokeWidth=1;fontSize=8;" parent="1" source="WLysvCGqEz9dYXmvK1la-25" target="WLysvCGqEz9dYXmvK1la-26" edge="1">
          <mxGeometry relative="1" as="geometry" />
        </mxCell>
        <mxCell id="WLysvCGqEz9dYXmvK1la-25" value="Payment terms and all related docs are sent to applicant&amp;nbsp;" style="rounded=0;whiteSpace=wrap;html=1;" parent="1" vertex="1">
          <mxGeometry x="137.5" y="120" width="180" height="60" as="geometry" />
        </mxCell>
        <mxCell id="WLysvCGqEz9dYXmvK1la-32" style="edgeStyle=orthogonalEdgeStyle;rounded=0;orthogonalLoop=1;jettySize=auto;html=1;exitX=0.5;exitY=1;exitDx=0;exitDy=0;entryX=0.5;entryY=0;entryDx=0;entryDy=0;strokeWidth=1;fontSize=8;" parent="1" source="WLysvCGqEz9dYXmvK1la-26" target="WLysvCGqEz9dYXmvK1la-31" edge="1">
          <mxGeometry relative="1" as="geometry" />
        </mxCell>
        <mxCell id="WLysvCGqEz9dYXmvK1la-26" value="Release of first installment of the grant amount" style="rounded=0;whiteSpace=wrap;html=1;" parent="1" vertex="1">
          <mxGeometry x="137.62" y="200" width="180" height="60" as="geometry" />
        </mxCell>
        <mxCell id="WLysvCGqEz9dYXmvK1la-31" value="Keep track of amount relased and how applicant is using it" style="rounded=0;whiteSpace=wrap;html=1;" parent="1" vertex="1">
          <mxGeometry x="137.5" y="280" width="180" height="60" as="geometry" />
        </mxCell>
      </root>
    </mxGraphModel>
  </diagram>
</mxfile>
